<svg xmlns="http://www.w3.org/2000/svg" viewBox="0 0 512 512">
  <defs>
    <linearGradient id="bg" x1="0%" y1="0%" x2="100%" y2="100%">
      <stop offset="0%" style="stop-color:#6366f1;stop-opacity:1" />
      <stop offset="100%" style="stop-color:#8b5cf6;stop-opacity:1" />
    </linearGradient>
    <linearGradient id="tool" x1="0%" y1="0%" x2="100%" y2="100%">
      <stop offset="0%" style="stop-color:#ffffff;stop-opacity:1" />
      <stop offset="100%" style="stop-color:#e0e7ff;stop-opacity:1" />
    </linearGradient>
  </defs>
  
  <!-- Background -->
  <rect width="512" height="512" rx="108" fill="url(#bg)"/>
  
  <!-- Code brackets < /> -->
  <path d="M140 180 L90 256 L140 332" stroke="white" stroke-width="16" stroke-linecap="round" stroke-linejoin="round" fill="none" opacity="0.9"/>
  <path d="M372 180 L422 256 L372 332" stroke="white" stroke-width="16" stroke-linecap="round" stroke-linejoin="round" fill="none" opacity="0.9"/>
  
  <!-- Wrench icon -->
  <g transform="translate(200, 150) scale(0.22)">
    <path d="M240 48C134 48 48 134 48 240s86 192 192 192 192-86 192-192S346 48 240 48zm0 336c-80 0-144-64-144-144s64-144 144-144 144 64 144 144-64 144-144 144z" fill="white" opacity="0.3"/>
    <path d="M351 176l-51-51-96 96-48-48-51 51 99 99z" fill="white"/>
    <path d="M240 128c-62 0-112 50-112 112s50 112 112 112 112-50 112-112-50-112-112-112zm0 192c-44 0-80-36-80-80s36-80 80-80 80 36 80 80-36 80-80 80z" fill="white" opacity="0.2"/>
  </g>
  
  <!-- Terminal prompt _ -->
  <rect x="220" y="340" width="72" height="8" rx="4" fill="white" opacity="0.8"/>
</svg>
